<svg width="250" height="37" viewBox="0 0 250 37" fill="none" xmlns="http://www.w3.org/2000/svg">
<path fill-rule="evenodd" clip-rule="evenodd" d="M68.6113 9.8334C72.6332 9.83769 74.6725 9.91379 76.37 10.5109C80.6502 12.0053 81.2517 15.072 81.2517 17.1662C81.2517 19.7392 80.3224 22.47 76.8223 23.4823L81.9661 32.3609H85.0923V36.0401C83.8527 36.1141 83.0695 36.185 82.2452 36.2433C81.4224 36.3102 80.7637 36.3445 80.2712 36.3445C79.2597 36.3445 78.5031 36.1921 78.003 35.8824C77.496 35.5816 77.0452 35.0549 76.6526 34.2945L71.2498 24.3954H68.3185V30.2183H62.6967V13.8275H60.3116V9.83319L68.6113 9.8334ZM17.448 9.74141C18.7141 9.74141 19.5746 9.98417 20.0349 10.4667C20.4948 10.9533 20.7111 11.7493 20.7111 12.8571V26.1434H23.2173V29.7563C23.2173 29.7563 20.1765 30.1768 18.3667 30.1768C17.3928 30.1768 16.6683 30.0343 16.1813 29.7563C15.6974 29.482 15.3731 29.0383 15.21 28.43C14.3198 29.0946 12.0386 30.6024 9.25142 30.6024C7.43912 30.6024 5.47408 30.0819 4.00413 28.6788C3.44489 28.1401 2.5071 26.6481 2.5071 23.7302V13.7713H0V10.117C0.783642 10.0024 1.64462 9.91579 2.5925 9.84404C3.52922 9.77206 4.28632 9.74141 4.85405 9.74141C6.12119 9.74141 6.98376 9.98417 7.44558 10.4667C7.90146 10.9533 8.13038 11.7493 8.13038 12.8571V22.9411C8.13038 23.8555 8.28948 24.6003 8.77749 24.9743C10.0004 25.919 12.5462 25.5659 13.2069 25.4939C13.8695 25.4276 14.4981 25.3257 15.09 25.1843V13.7713H12.5913V10.117C13.3775 10.0024 14.2385 9.91579 15.1813 9.84404C16.1247 9.77206 16.8827 9.74141 17.448 9.74141ZM53.6728 9.74141C54.9696 9.74141 55.8385 9.98417 56.3004 10.4667C56.7627 10.9533 56.9877 11.7504 56.9877 12.8571V30.2196H51.3659V13.7724H48.6971V10.1547C49.0963 10.0999 49.53 10.0537 49.9935 10.009C49.9935 10.009 52.5021 9.74141 53.6728 9.74141ZM39.0537 9.32484C43.6212 9.32484 45.1604 12.7865 45.1604 16.1836V26.1434H47.6113V29.7563C47.6113 29.7563 45.4475 30.0269 45.0199 30.0722C44.5891 30.1099 44.1684 30.1388 43.7683 30.1561C43.4008 30.1657 43.1056 30.1705 42.8526 30.1768H42.7577C42.7006 30.1768 42.6498 30.1682 42.5926 30.1682C42.4901 30.1657 42.3901 30.1647 42.2898 30.1561C41.9033 30.1367 41.5634 30.088 41.2702 30.0145C41.2431 30.0098 41.2255 30.0037 41.2025 29.9964C40.9644 29.9366 40.5056 29.7661 40.224 29.4661C39.7606 28.9733 39.5408 28.1633 39.5408 27.0528V16.9722C39.5408 16.0326 39.3223 15.3501 38.8886 14.9358C38.62 14.6869 38.269 14.5122 37.8408 14.438C35.3066 13.9922 33.0666 14.5916 32.4993 14.7319V30.005H26.8736V13.7713H24.0867V10.1539C24.8685 10.0168 27.5282 9.74141 29.1422 9.74141C30.1402 9.74141 30.8897 9.87944 31.3913 10.1539C31.8873 10.4318 32.2307 10.8641 32.4169 11.4455C34.7779 9.47003 37.8684 9.32484 39.0537 9.32484ZM71.4214 13.7154H68.3185V20.5997H71.6423C74.5416 20.5997 75.64 18.7089 75.64 17.0916C75.64 15.5488 75.1952 13.7154 71.4214 13.7154ZM53.3087 0C54.2461 0 54.962 0.210841 55.4284 0.622781C55.8767 1.03013 56.1076 1.72976 56.1076 2.70976V3.26408C56.1076 4.24535 55.8827 4.93651 55.4284 5.32913C54.962 5.72741 54.2496 5.93124 53.3087 5.93124H53.0131C52.0528 5.93124 51.3298 5.73161 50.882 5.33178C50.4393 4.94035 50.2118 4.24409 50.2118 3.26408V2.70976C50.2118 1.73459 50.4393 1.03013 50.882 0.622781C51.3388 0.209455 52.0563 0 53.0131 0H53.3087Z" fill="white"/>
<path d="M90.5 17.6031H95.5243V16.5644H91.6742V9.6997H90.5V17.6031Z" fill="white"/>
<path d="M102.166 17.6031H103.386L100.281 9.6997H99.1971L96.0922 17.6031H97.3003L98.0567 15.5934H101.41L102.166 17.6031ZM98.4519 14.5659L99.739 11.1675L101.026 14.5659H98.4519Z" fill="white"/>
<path d="M110.427 17.6934C112.245 17.6934 113.464 16.6434 113.464 14.8369V9.6997H112.335V14.8708C112.335 15.9998 111.568 16.6434 110.427 16.6434C109.298 16.6434 108.53 15.9998 108.53 14.8708V9.6997H107.401V14.8369C107.401 16.6434 108.621 17.6934 110.427 17.6934Z" fill="white"/>
<path d="M115.263 17.6031H116.437V11.5288L120.253 17.6031H121.552V9.6997H120.378V15.7853L116.573 9.6997H115.263V17.6031Z" fill="white"/>
<path d="M123.496 17.6031H124.67V9.6997H123.496V17.6031Z" fill="white"/>
<path d="M128.838 17.6031H130.001L132.947 9.6997H131.762L129.413 16.1918L127.076 9.6997H125.891L128.838 17.6031Z" fill="white"/>
<path d="M134.163 17.6031H139.357V16.5644H135.337V14.0466H138.487V13.0078H135.337V10.7384H139.233V9.6997H134.163V17.6031Z" fill="white"/>
<path d="M145.446 13.8546C146.146 13.5046 146.609 12.9175 146.609 12.0707C146.609 10.6594 145.638 9.6997 144.046 9.6997H140.952V17.6031H142.126V14.4869H144.102C144.779 14.4869 145.242 14.9837 145.299 15.6837L145.457 17.6031H146.597L146.439 15.5821C146.394 14.8143 146.021 14.1933 145.446 13.8546ZM142.126 10.7158H144.012C145.039 10.7158 145.434 11.3481 145.434 12.0707C145.434 12.782 145.039 13.4482 144.012 13.4482H142.126V10.7158Z" fill="white"/>
<path d="M151.054 17.6934C152.747 17.6934 153.967 16.8466 153.967 15.4014C153.967 12.3868 149.462 13.6627 149.462 11.7433C149.462 11.0771 150.038 10.6481 150.986 10.6481C151.957 10.6481 152.589 11.1788 152.668 11.9917H153.809C153.707 10.5465 152.601 9.60938 150.986 9.60938C149.394 9.60938 148.288 10.4787 148.288 11.7433C148.288 14.6562 152.77 13.5159 152.77 15.4127C152.77 16.2708 152.047 16.6547 151.054 16.6547C149.936 16.6547 149.27 15.9998 149.18 14.9837H148.039C148.13 16.6208 149.27 17.6934 151.054 17.6934Z" fill="white"/>
<path d="M155.489 17.6031H156.663V9.6997H155.489V17.6031Z" fill="white"/>
<path d="M158.606 17.6031H161.034C163.235 17.6031 165.019 16.2256 165.019 13.6514C165.019 11.0771 163.235 9.6997 161.034 9.6997H158.606V17.6031ZM159.78 16.5644V10.7384H160.966C162.434 10.7384 163.811 11.5626 163.811 13.6514C163.811 15.7401 162.434 16.5644 160.966 16.5644H159.78Z" fill="white"/>
<path d="M171.662 17.6031H172.881L169.776 9.6997H168.693L165.588 17.6031H166.796L167.552 15.5934H170.906L171.662 17.6031ZM167.947 14.5659L169.235 11.1675L170.522 14.5659H167.947Z" fill="white"/>
<path d="M174.058 17.6031H176.486C178.688 17.6031 180.471 16.2256 180.471 13.6514C180.471 11.0771 178.688 9.6997 176.486 9.6997H174.058V17.6031ZM175.233 16.5644V10.7384H176.418C177.886 10.7384 179.263 11.5626 179.263 13.6514C179.263 15.7401 177.886 16.5644 176.418 16.5644H175.233Z" fill="white"/>
<path d="M90.5 30.2671H95.6937V29.2284H91.6742V26.7106H94.8243V25.6719H91.6742V23.4025H95.5695V22.3638H90.5V30.2671Z" fill="white"/>
<path d="M97.2889 30.2671H98.4631V24.1928L102.279 30.2671H103.578V22.3638H102.403V28.4494L98.5986 22.3638H97.2889V30.2671Z" fill="white"/>
<path d="M108.463 30.2671H109.637V22.3638H108.463V30.2671Z" fill="white"/>
<path d="M111.58 30.2671H112.754V24.1928L116.571 30.2671H117.869V22.3638H116.695V28.4494L112.89 22.3638H111.58V30.2671Z" fill="white"/>
<path d="M121.609 30.2671H122.783V23.4025H125.256V22.3638H119.136V23.4025H121.609V30.2671Z" fill="white"/>
<path d="M126.437 30.2671H131.631V29.2284H127.611V26.7106H130.761V25.6719H127.611V23.4025H131.506V22.3638H126.437V30.2671Z" fill="white"/>
<path d="M137.72 26.5187C138.42 26.1687 138.882 25.5816 138.882 24.7348C138.882 23.3235 137.911 22.3638 136.32 22.3638H133.226V30.2671H134.4V27.151H136.376C137.053 27.151 137.516 27.6477 137.573 28.3478L137.731 30.2671H138.871L138.713 28.2461C138.668 27.4784 138.295 26.8574 137.72 26.5187ZM134.4 23.3799H136.286C137.313 23.3799 137.708 24.0122 137.708 24.7348C137.708 25.4461 137.313 26.1122 136.286 26.1122H134.4V23.3799Z" fill="white"/>
<path d="M140.941 30.2671H142.115V24.1928L145.931 30.2671H147.23V22.3638H146.056V28.4494L142.251 22.3638H140.941V30.2671Z" fill="white"/>
<path d="M149.174 30.2671H154.368V29.2284H150.348V26.7106H153.499V25.6719H150.348V23.4025H154.244V22.3638H149.174V30.2671Z" fill="white"/>
<path d="M157.758 30.2671H158.933V23.4025H161.405V22.3638H155.286V23.4025H157.758V30.2671Z" fill="white"/>
</svg>
