<svg width="199" height="40" viewBox="0 0 199 40" fill="none" xmlns="http://www.w3.org/2000/svg">
<g clip-path="url(#clip0_32_31)">
<path fill-rule="evenodd" clip-rule="evenodd" d="M75.504 10.8224C79.9299 10.8272 82.1741 10.9109 84.0421 11.5681C88.7524 13.2128 89.4142 16.5879 89.4142 18.8927C89.4142 21.7245 88.3915 24.73 84.5398 25.8441L90.2004 35.6157H93.6406V39.665C92.2765 39.7464 91.4147 39.8245 90.5076 39.8886C89.6021 39.9622 88.8771 40 88.3353 40C87.222 40 86.3895 39.8322 85.8392 39.4915C85.2812 39.1604 84.7851 38.5807 84.3531 37.7438L78.4075 26.8491H75.1817V33.2576H68.9952V15.2183H66.3705V10.8222L75.504 10.8224ZM19.2008 10.7212C20.5941 10.7212 21.5411 10.9884 22.0476 11.5195C22.5536 12.055 22.7917 12.9311 22.7917 14.1503V28.7729H25.5496V32.7492C25.5496 32.7492 22.2034 33.2119 20.2118 33.2119C19.14 33.2119 18.3428 33.0551 17.8069 32.7492C17.2744 32.4473 16.9175 31.959 16.738 31.2895C15.7584 32.0209 13.248 33.6804 10.1808 33.6804C8.18645 33.6804 6.02401 33.1075 4.40638 31.5633C3.79097 30.9704 2.75897 29.3283 2.75897 26.1169V15.1564H0V11.1346C0.862367 11.0085 1.80984 10.9131 2.85294 10.8341C3.88377 10.7549 4.71692 10.7212 5.34169 10.7212C6.73612 10.7212 7.68535 10.9884 8.19356 11.5195C8.69525 12.055 8.94715 12.9311 8.94715 14.1503V25.2485C8.94715 26.2549 9.12224 27.0746 9.65927 27.4862C11.005 28.5259 13.8065 28.1373 14.5336 28.058C15.2628 27.9851 15.9546 27.873 16.6059 27.7174V15.1564H13.8562V11.1346C14.7214 11.0085 15.6689 10.9131 16.7064 10.8341C17.7446 10.7549 18.5788 10.7212 19.2008 10.7212ZM59.0647 10.7212C60.4917 10.7212 61.448 10.9884 61.9564 11.5195C62.4651 12.055 62.7127 12.9322 62.7127 14.1503V33.2591H56.5262V15.1576H53.5893V11.176C54.0285 11.1158 54.5058 11.0649 55.0158 11.0156C55.0158 11.0156 57.7764 10.7212 59.0647 10.7212ZM42.977 10.2627C48.0033 10.2627 49.6972 14.0725 49.6972 17.8113V28.7729H52.3943V32.7492C52.3943 32.7492 50.0132 33.047 49.5426 33.0969C49.0686 33.1383 48.6055 33.1702 48.1653 33.1892C47.7608 33.1997 47.4359 33.2051 47.1575 33.2119H47.0532C46.9902 33.2119 46.9343 33.2025 46.8714 33.2025C46.7587 33.1997 46.6486 33.1986 46.5382 33.1892C46.1129 33.1679 45.7388 33.1143 45.4163 33.0334C45.3864 33.0281 45.367 33.0214 45.3417 33.0134C45.0797 32.9476 44.5748 32.7599 44.2649 32.4298C43.7548 31.8874 43.513 30.9959 43.513 29.7737V18.6793C43.513 17.6452 43.2726 16.894 42.7953 16.4381C42.4997 16.1641 42.1135 15.9719 41.6423 15.8901C38.8535 15.3995 36.3884 16.0593 35.7642 16.2137V33.0228H29.5733V15.1564H26.5065V11.1751C27.3668 11.0243 30.2936 10.7212 32.0698 10.7212C33.1681 10.7212 33.9929 10.8731 34.5448 11.1751C35.0907 11.481 35.4685 11.9568 35.6735 12.5967C38.2717 10.4225 41.6727 10.2627 42.977 10.2627ZM78.5965 15.0949H75.1817V22.6716H78.8394C82.03 22.6716 83.2388 20.5906 83.2388 18.8107C83.2388 17.1126 82.7493 15.0949 78.5965 15.0949ZM58.6641 0C59.6956 0 60.4835 0.232047 60.9967 0.68542C61.4901 1.13374 61.7441 1.90374 61.7441 2.98231V3.59238C61.7441 4.67235 61.4966 5.43302 60.9967 5.86513C60.4835 6.30347 59.6995 6.5278 58.6641 6.5278H58.3388C57.282 6.5278 56.4864 6.30809 55.9935 5.86805C55.5064 5.43725 55.256 4.67095 55.256 3.59238V2.98231C55.256 1.90906 55.5064 1.13374 55.9935 0.68542C56.4964 0.230522 57.2859 0 58.3388 0H58.6641Z" fill="#121212"/>
</g>
<g clip-path="url(#clip1_32_31)">
<path d="M99.6016 19.3705H105.132V18.227H100.894V10.6697H99.6016V19.3705Z" fill="#0053AF"/>
<path d="M112.443 19.3705H113.785L110.367 10.6697H109.174L105.757 19.3705H107.087L107.919 17.158H111.61L112.443 19.3705ZM108.354 16.0269L109.771 12.2856L111.188 16.0269H108.354Z" fill="#0053AF"/>
<path d="M121.536 19.47C123.536 19.47 124.879 18.314 124.879 16.3252V10.6697H123.636V16.3625C123.636 17.6055 122.791 18.314 121.536 18.314C120.293 18.314 119.448 17.6055 119.448 16.3625V10.6697H118.205V16.3252C118.205 18.314 119.547 19.47 121.536 19.47Z" fill="#0053AF"/>
<path d="M126.858 19.3705H128.15V12.6833L132.351 19.3705H133.78V10.6697H132.488V17.3693L128.3 10.6697H126.858V19.3705Z" fill="#0053AF"/>
<path d="M135.92 19.3705H137.213V10.6697H135.92V19.3705Z" fill="#0053AF"/>
<path d="M141.8 19.3705H143.08L146.323 10.6697H145.018L142.434 17.8168L139.861 10.6697H138.556L141.8 19.3705Z" fill="#0053AF"/>
<path d="M147.662 19.3705H153.378V18.227H148.954V15.4551H152.421V14.3116H148.954V11.8132H153.242V10.6697H147.662V19.3705Z" fill="#0053AF"/>
<path d="M160.08 15.2438C160.85 14.8585 161.36 14.2122 161.36 13.2799C161.36 11.7262 160.291 10.6697 158.539 10.6697H155.134V19.3705H156.426V15.9399H158.601C159.347 15.9399 159.856 16.4868 159.918 17.2575L160.092 19.3705H161.348L161.174 17.1456C161.124 16.3004 160.714 15.6167 160.08 15.2438ZM156.426 11.7884H158.502C159.633 11.7884 160.068 12.4844 160.068 13.2799C160.068 14.063 159.633 14.7964 158.502 14.7964H156.426V11.7884Z" fill="#0053AF"/>
<path d="M166.253 19.47C168.117 19.47 169.459 18.5378 169.459 16.9468C169.459 13.628 164.5 15.0326 164.5 12.9195C164.5 12.1862 165.134 11.7138 166.178 11.7138C167.247 11.7138 167.943 12.2981 168.03 13.193H169.285C169.173 11.602 167.955 10.5703 166.178 10.5703C164.426 10.5703 163.208 11.5274 163.208 12.9195C163.208 16.1264 168.142 14.871 168.142 16.9592C168.142 17.9039 167.346 18.3265 166.253 18.3265C165.022 18.3265 164.289 17.6056 164.19 16.4869H162.935C163.034 18.2892 164.289 19.47 166.253 19.47Z" fill="#0053AF"/>
<path d="M171.135 19.3705H172.427V10.6697H171.135V19.3705Z" fill="#0053AF"/>
<path d="M174.566 19.3705H177.238C179.661 19.3705 181.625 17.8541 181.625 15.0201C181.625 12.1861 179.661 10.6697 177.238 10.6697H174.566V19.3705ZM175.858 18.227V11.8132H177.163C178.779 11.8132 180.295 12.7206 180.295 15.0201C180.295 17.3196 178.779 18.227 177.163 18.227H175.858Z" fill="#0053AF"/>
<path d="M188.937 19.3705H190.279L186.861 10.6697H185.668L182.25 19.3705H183.58L184.413 17.158H188.104L188.937 19.3705ZM184.848 16.0269L186.265 12.2856L187.681 16.0269H184.848Z" fill="#0053AF"/>
<path d="M191.574 19.3705H194.246C196.669 19.3705 198.633 17.8541 198.633 15.0201C198.633 12.1861 196.669 10.6697 194.246 10.6697H191.574V19.3705ZM192.866 18.227V11.8132H194.171C195.787 11.8132 197.303 12.7206 197.303 15.0201C197.303 17.3196 195.787 18.227 194.171 18.227H192.866Z" fill="#0053AF"/>
<path d="M99.6016 33.3124H105.318V32.1689H100.894V29.3971H104.361V28.2535H100.894V25.7551H105.181V24.6116H99.6016V33.3124Z" fill="#0053AF"/>
<path d="M107.074 33.3124H108.367V26.6253L112.567 33.3124H113.996V24.6116H112.704V31.3112L108.516 24.6116H107.074V33.3124Z" fill="#0053AF"/>
<path d="M119.374 33.3124H120.666V24.6116H119.374V33.3124Z" fill="#0053AF"/>
<path d="M122.805 33.3124H124.097V26.6253L128.298 33.3124H129.727V24.6116H128.434V31.3112L124.246 24.6116H122.805V33.3124Z" fill="#0053AF"/>
<path d="M133.843 33.3124H135.135V25.7551H137.857V24.6116H131.121V25.7551H133.843V33.3124Z" fill="#0053AF"/>
<path d="M139.157 33.3124H144.874V32.1689H140.45V29.3971H143.917V28.2535H140.45V25.7551H144.737V24.6116H139.157V33.3124Z" fill="#0053AF"/>
<path d="M151.576 29.1857C152.347 28.8004 152.856 28.1541 152.856 27.2218C152.856 25.6681 151.787 24.6116 150.035 24.6116H146.63V33.3124H147.922V29.8818H150.097C150.843 29.8818 151.352 30.4288 151.414 31.1994L151.589 33.3124H152.844L152.67 31.0875C152.62 30.2423 152.21 29.5586 151.576 29.1857ZM147.922 25.7303H149.998C151.129 25.7303 151.564 26.4263 151.564 27.2218C151.564 28.005 151.129 28.7383 149.998 28.7383H147.922V25.7303Z" fill="#0053AF"/>
<path d="M155.122 33.3124H156.414V26.6253L160.614 33.3124H162.044V24.6116H160.751V31.3112L156.563 24.6116H155.122V33.3124Z" fill="#0053AF"/>
<path d="M164.184 33.3124H169.901V32.1689H165.477V29.3971H168.944V28.2535H165.477V25.7551H169.764V24.6116H164.184V33.3124Z" fill="#0053AF"/>
<path d="M173.633 33.3124H174.925V25.7551H177.647V24.6116H170.911V25.7551H173.633V33.3124Z" fill="#0053AF"/>
</g>
<defs>
<clipPath id="clip0_32_31">
<rect width="93.6406" height="40" fill="white"/>
</clipPath>
<clipPath id="clip1_32_31">
<rect width="99.0312" height="22.7422" fill="white" transform="translate(99.6016 10.5703)"/>
</clipPath>
</defs>
</svg>
